<svg xmlns="http://www.w3.org/2000/svg" width="439" height="422" viewBox="0 0 439 422">
  <metadata><?xpacket begin="﻿" id="W5M0MpCehiHzreSzNTczkc9d"?>
<x:xmpmeta xmlns:x="adobe:ns:meta/" x:xmptk="Adobe XMP Core 5.6-c138 79.159824, 2016/09/14-01:09:01        ">
   <rdf:RDF xmlns:rdf="http://www.w3.org/1999/02/22-rdf-syntax-ns#">
      <rdf:Description rdf:about=""/>
   </rdf:RDF>
</x:xmpmeta>
                                                                                                    
                                                                                                    
                                                                                                    
                                                                                                    
                                                                                                    
                                                                                                    
                                                                                                    
                                                                                                    
                                                                                                    
                                                                                                    
                                                                                                    
                                                                                                    
                                                                                                    
                                                                                                    
                                                                                                    
                                                                                                    
                                                                                                    
                                                                                                    
                                                                                                    
                                                                                                    
                           
<?xpacket end="w"?></metadata>
<defs>
    <style>
      .cls-1 {
        fill: #fff;
        fill-rule: evenodd;
      }
    </style>
  </defs>
  <path id="Forma_1" data-name="Forma 1" class="cls-1" d="M164.613,140.911L137.92,115.688a39.034,39.034,0,0,0,5.042-18.937,39.834,39.834,0,1,0-18.653,33.492l26.651,25.193A90.042,90.042,0,0,1,164.613,140.911ZM277.5,137.753l35.449-59.67a39.078,39.078,0,1,0-17.2-10.04l-35.334,59.5A88.962,88.962,0,0,1,277.5,137.753Zm122.313,49.975a39.559,39.559,0,0,0-37.048,25.894l-49.246-4.856c0,0.372.058,0.729,0.058,1.085a92.01,92.01,0,0,1-2,18.738l49.244,4.884A39.523,39.523,0,1,0,399.813,187.728ZM263.848,343.36l-11-48.131a91.665,91.665,0,0,1-19.454,4.484l11.027,48.161A39.437,39.437,0,1,0,263.848,343.36Zm-129.2-114.4L73.321,249.5a39.518,39.518,0,1,0,6.47,21.6c0-.913-0.186-1.743-0.271-2.628l61.528-20.624A90.2,90.2,0,0,1,134.649,228.96Zm88.436-86.979a67.87,67.87,0,1,1-67.883,67.87A67.878,67.878,0,0,1,223.085,141.981Z"/>
</svg>
