<svg xmlns="http://www.w3.org/2000/svg" width="437" height="355" viewBox="0 0 437 355">
  <metadata><?xpacket begin="﻿" id="W5M0MpCehiHzreSzNTczkc9d"?>
<x:xmpmeta xmlns:x="adobe:ns:meta/" x:xmptk="Adobe XMP Core 5.6-c138 79.159824, 2016/09/14-01:09:01        ">
   <rdf:RDF xmlns:rdf="http://www.w3.org/1999/02/22-rdf-syntax-ns#">
      <rdf:Description rdf:about=""/>
   </rdf:RDF>
</x:xmpmeta>
                                                                                                    
                                                                                                    
                                                                                                    
                                                                                                    
                                                                                                    
                                                                                                    
                                                                                                    
                                                                                                    
                                                                                                    
                                                                                                    
                                                                                                    
                                                                                                    
                                                                                                    
                                                                                                    
                                                                                                    
                                                                                                    
                                                                                                    
                                                                                                    
                                                                                                    
                                                                                                    
                           
<?xpacket end="w"?></metadata>
<defs>
    <style>
      .cls-1 {
        fill: #fff;
        fill-rule: evenodd;
      }
    </style>
  </defs>
  <path id="Forma_1" data-name="Forma 1" class="cls-1" d="M405.57,0H105.3A32.545,32.545,0,0,0,72.868,32.419v186.5A32.545,32.545,0,0,0,105.3,251.341H312.285l46.843,47.227a10.028,10.028,0,0,0,7.206,3.2,10.336,10.336,0,0,0,10.41-10.406V251.341H405.57A32.545,32.545,0,0,0,438,218.923V32.419A32.545,32.545,0,0,0,405.57,0ZM151.339,160.49a30.017,30.017,0,1,1,30.027-30.016A30.24,30.24,0,0,1,151.339,160.49Zm105.3,0a30.017,30.017,0,1,1,30.027-30.016A30.241,30.241,0,0,1,256.635,160.49Zm104.895,0a30.017,30.017,0,1,1,30.027-30.016A30.24,30.24,0,0,1,361.53,160.49ZM54.451,219.724V156.088H21.621A21.356,21.356,0,0,0,.4,177.3V299.768a21.049,21.049,0,0,0,21.219,22.013H40.438V348.2a7.014,7.014,0,0,0,6.806,6.8,6.63,6.63,0,0,0,4.8-2l30.828-30.817H219a21.356,21.356,0,0,0,21.22-21.212V270.552H105.3A50.909,50.909,0,0,1,54.451,219.724Z"/>
</svg>
