<svg xmlns="http://www.w3.org/2000/svg" xmlns:xlink="http://www.w3.org/1999/xlink" width="2054" height="1778" viewBox="0 0 2054 1778">
  <metadata><?xpacket begin="﻿" id="W5M0MpCehiHzreSzNTczkc9d"?>
<x:xmpmeta xmlns:x="adobe:ns:meta/" x:xmptk="Adobe XMP Core 5.6-c138 79.159824, 2016/09/14-01:09:01        ">
   <rdf:RDF xmlns:rdf="http://www.w3.org/1999/02/22-rdf-syntax-ns#">
      <rdf:Description rdf:about=""/>
   </rdf:RDF>
</x:xmpmeta>
                                                                                                    
                                                                                                    
                                                                                                    
                                                                                                    
                                                                                                    
                                                                                                    
                                                                                                    
                                                                                                    
                                                                                                    
                                                                                                    
                                                                                                    
                                                                                                    
                                                                                                    
                                                                                                    
                                                                                                    
                                                                                                    
                                                                                                    
                                                                                                    
                                                                                                    
                                                                                                    
                           
<?xpacket end="w"?></metadata>
<defs>
    <style>
      .cls-1 {
        fill-rule: evenodd;
        filter: url(#filter);
      }
    </style>
    <filter id="filter" x="16" y="12.969" width="2005.12" height="1754.031" filterUnits="userSpaceOnUse">
      <feFlood result="flood" flood-color="#150533"/>
      <feComposite result="composite" operator="in" in2="SourceGraphic"/>
      <feBlend result="blend" in2="SourceGraphic"/>
    </filter>
  </defs>
  <path id="Forma_1" data-name="Forma 1" class="cls-1" d="M747.953,1190c-55.784-47.74-130.342-79.66-215.584-93.29C652.761,1063,739.778,967.883,739.778,856.021c0-139.944-136.168-253.808-303.574-253.808S132.63,716.077,132.63,856.021c0,111.862,87.017,206.979,207.408,240.689-85.188,13.63-159.779,45.55-215.557,93.28-73.69,63.07-111.172,150.14-108.318,251.77,0.875,32.06,32.205,57.65,70.582,57.65H785.683c38.383,0,69.733-25.59,70.562-57.65C859.092,1340.13,821.663,1253.06,747.953,1190ZM1912.62,835.841c-55.79-47.737-130.37-79.661-215.56-93.289,120.39-33.712,207.41-128.831,207.41-240.682,0-139.954-136.18-253.808-303.58-253.808-167.42,0-303.62,113.854-303.62,253.808,0,111.851,87.04,206.97,207.43,240.682-85.16,13.628-159.75,45.552-215.56,93.289-73.71,63.066-111.17,150.124-108.35,251.759,0.93,32.06,32.29,57.66,70.62,57.66h698.94c38.35,0,69.71-25.6,70.61-57.66C2023.78,985.965,1986.35,898.907,1912.62,835.841ZM311.908,546.116a80.293,80.293,0,0,0,40.759,10.855c22.15,0,43.927-8.671,57.685-24.922,138.571-163.56,363.408-261.7,602.418-263.25L968.637,305.69c-27.549,23.049-27.549,60.422,0,83.482,13.778,11.519,31.883,17.29,49.893,17.29,18.09,0,36.17-5.771,49.98-17.29L1233.2,251.445c27.61-23.049,27.61-60.422,0-83.482L1068.51,30.215c-27.59-23.038-72.317-23.038-99.873,0s-27.549,60.433,0,83.482l44.283,37.052c-284.772,1.509-552.81,118.264-717.84,313.073C272.578,490.425,280.081,527.263,311.908,546.116ZM1728.08,1232.61c-31.97-18.66-76.01-12.1-98.31,14.63-128.17,153.62-331.58,250.27-552.51,264.92l45.35-37.9c27.58-23.05,27.58-60.44,0-83.49-27.57-23.03-72.23-23.03-99.84,0L858.021,1528.5c-27.608,23.05-27.608,60.42,0,83.48l164.749,137.73c13.78,11.52,31.83,17.29,49.93,17.29,18.06,0,36.11-5.77,49.89-17.29,27.6-23.05,27.6-60.43,0-83.48l-42.89-35.85c266.17-15.44,511.79-130.9,665.86-315.6C1767.89,1288.05,1760.04,1251.25,1728.08,1232.61Z"/>
</svg>
