<svg xmlns="http://www.w3.org/2000/svg" width="800" height="1130" viewBox="0 0 800 1130">
  <metadata><?xpacket begin="﻿" id="W5M0MpCehiHzreSzNTczkc9d"?>
<x:xmpmeta xmlns:x="adobe:ns:meta/" x:xmptk="Adobe XMP Core 5.6-c138 79.159824, 2016/09/14-01:09:01        ">
   <rdf:RDF xmlns:rdf="http://www.w3.org/1999/02/22-rdf-syntax-ns#">
      <rdf:Description rdf:about=""/>
   </rdf:RDF>
</x:xmpmeta>
                                                                                                    
                                                                                                    
                                                                                                    
                                                                                                    
                                                                                                    
                                                                                                    
                                                                                                    
                                                                                                    
                                                                                                    
                                                                                                    
                                                                                                    
                                                                                                    
                                                                                                    
                                                                                                    
                                                                                                    
                                                                                                    
                                                                                                    
                                                                                                    
                                                                                                    
                                                                                                    
                           
<?xpacket end="w"?></metadata>
<defs>
    <style>
      .cls-1 {
        fill: #fff;
        fill-rule: evenodd;
      }
    </style>
  </defs>
  <path id="Forma_1" data-name="Forma 1" class="cls-1" d="M273.96,437.716c-15.164-14.836-35.43-24.752-58.6-28.986,32.725-10.475,56.378-40.03,56.378-74.788,0-43.483-37.013-78.863-82.518-78.863S106.7,290.459,106.7,333.942c0,34.758,23.653,64.313,56.378,74.788-23.156,4.234-43.431,14.15-58.593,28.983-20.03,19.6-30.218,46.649-29.443,78.23,0.238,9.96,8.754,17.913,19.185,17.913H284.216c10.433,0,18.954-7.953,19.18-17.913C304.17,484.362,294,457.309,273.96,437.716ZM590.539,327.672c-15.163-14.833-35.437-24.752-58.593-28.987,32.725-10.475,56.378-40.03,56.378-74.784,0-43.486-37.015-78.863-82.519-78.863s-82.531,35.377-82.531,78.863c0,34.754,23.661,64.309,56.385,74.784-23.149,4.235-43.424,14.154-58.594,28.987-20.034,19.6-30.217,46.646-29.45,78.227,0.252,9.959,8.775,17.916,19.194,17.916H600.795c10.426,0,18.949-7.957,19.194-17.916C620.756,374.318,610.582,347.268,590.539,327.672Zm-435.1-90.023a19.764,19.764,0,0,0,11.079,3.373,19.448,19.448,0,0,0,15.68-7.744c37.666-50.821,98.782-81.314,163.75-81.8l-12,11.463a17.785,17.785,0,0,0,0,25.94,19.833,19.833,0,0,0,27.146,0l44.768-42.795a17.756,17.756,0,0,0,0-25.939l-44.768-42.8a19.841,19.841,0,0,0-27.146,0,17.784,17.784,0,0,0,0,25.939L345.984,114.8c-77.408.469-150.266,36.747-195.124,97.278A17.838,17.838,0,0,0,155.434,237.649ZM540.379,450.955a19.764,19.764,0,0,0-26.724,4.548c-34.839,47.73-90.129,77.761-150.184,82.315L375.8,526.039a17.769,17.769,0,0,0,0-25.939,19.831,19.831,0,0,0-27.139,0l-44.782,42.794a17.756,17.756,0,0,0,0,25.939l44.782,42.8a19.816,19.816,0,0,0,27.133,0,17.761,17.761,0,0,0,0-25.94l-11.658-11.14c72.351-4.8,139.114-40.672,180.994-98.062A17.827,17.827,0,0,0,540.379,450.955Z"/>
</svg>
